<svg width="640" height="38" viewBox="0 0 640 38" fill="none" xmlns="http://www.w3.org/2000/svg">
<path d="M29.4067 15.7439C29.4067 12.5659 29.3041 6.67018 28.4327 5.13275C28.0743 4.51706 27.151 4.15852 25.8706 4.05593L24.5888 3.95293C24.281 3.59439 24.3823 2.9282 24.6901 2.72301C26.6393 2.82507 28.5353 2.87717 30.5352 2.87717C32.6883 2.87717 34.0727 2.82507 35.918 2.72301C36.3284 2.9791 36.2764 3.64529 36.0206 3.95293L34.7895 4.05593C33.5077 4.15852 32.5338 4.61966 32.226 5.28585C31.5092 6.97783 31.5092 12.8736 31.5092 15.7439V21.5376C31.5092 25.9975 30.7923 30.7135 27.9211 33.7903C25.716 36.1986 21.9227 37.533 18.1281 37.533C14.592 37.533 11.0545 36.8657 8.54165 34.7115C5.82494 32.4574 4.54319 28.7149 4.54319 22.6141V10.5149C4.54319 5.18378 4.4406 4.31148 1.46807 4.05593L0.186323 3.95293C-0.121456 3.74841 -0.0188603 2.87717 0.288919 2.72301C2.85108 2.82507 4.59515 2.87717 6.64568 2.87717C8.74684 2.87717 10.439 2.82507 12.9518 2.72301C13.2583 2.87717 13.3609 3.74841 13.0531 3.95293L11.8233 4.05593C8.84943 4.31148 8.74684 5.18378 8.74684 10.5149V21.5887C8.74684 29.8422 11.3103 35.2768 19.154 35.2768C26.5874 35.2768 29.4067 29.4325 29.4067 21.6397V15.7439Z" fill="#231F20"/>
<path d="M35.353 34.6099C35.353 32.8669 36.5841 31.5845 38.2243 31.5845C39.9671 31.5845 41.0956 32.9688 41.0956 34.6099C41.0956 36.2498 39.9671 37.4292 38.2243 37.4292C36.7374 37.4292 35.353 36.3524 35.353 34.6099Z" fill="#231F20"/>
<path d="M56.1166 37.533C51.8104 37.533 49.0937 36.1986 48.1197 35.6349C47.5041 34.5075 46.8379 30.8675 46.7354 28.4577C46.9912 28.0996 47.7613 27.9961 47.9651 28.3037C48.7352 30.919 50.8364 35.9425 56.7841 35.9425C61.089 35.9425 63.1915 33.1232 63.1915 30.0477C63.1915 27.7921 62.7305 25.2803 58.9879 22.8706L54.118 19.6916C51.5545 18.0002 48.5807 15.0777 48.5807 10.8734C48.5807 6.004 52.374 2.05643 59.0398 2.05643C60.628 2.05643 62.4747 2.36448 63.8071 2.72302C64.4733 2.9282 65.1914 3.03067 65.6018 3.03067C66.0628 4.26058 66.5238 7.13185 66.5238 9.28497C66.3186 9.59262 65.4979 9.74665 65.2421 9.43913C64.5759 6.97783 63.1915 3.64529 58.2697 3.64529C53.2467 3.64529 52.1701 6.97783 52.1701 9.336C52.1701 12.3095 54.631 14.4626 56.527 15.6419L60.628 18.2047C63.8577 20.2043 67.0368 23.1782 67.0368 28.0476C67.0368 33.6868 62.7825 37.533 56.1166 37.533Z" fill="#231F20"/>
<path d="M71.6353 34.6099C71.6353 32.8669 72.865 31.5845 74.5065 31.5845C76.2493 31.5845 77.3778 32.9688 77.3778 34.6099C77.3778 36.2498 76.2493 37.4292 74.5065 37.4292C73.0196 37.4292 71.6353 36.3524 71.6353 34.6099Z" fill="#231F20"/>
<path d="M124.661 27.9961C124.661 29.5346 124.661 35.6349 124.814 36.9678C124.712 37.2754 124.405 37.533 123.84 37.533C123.225 36.6601 121.739 34.8657 117.278 29.7906L105.385 16.2566C104.001 14.6682 100.516 10.4639 99.4378 9.336H99.3365C99.13 9.95116 99.0793 11.13 99.0793 12.668V23.8439C99.0793 26.2536 99.13 32.9176 100.003 34.456C100.31 35.0197 101.335 35.3272 102.617 35.4309L104.206 35.5844C104.513 35.9945 104.462 36.6096 104.104 36.8657C101.797 36.7638 100.003 36.7117 98.1054 36.7117C95.9523 36.7117 94.5679 36.7638 92.7746 36.8657C92.4148 36.6096 92.3642 35.8909 92.6706 35.5844L94.0563 35.4309C95.2354 35.2768 96.0549 34.9692 96.3107 34.404C97.0288 32.5595 96.9769 26.3052 96.9769 23.8439V9.02849C96.9769 7.59245 96.9262 6.51669 95.8497 5.33741C95.1315 4.61966 93.9017 4.26058 92.6706 4.10696L91.8006 4.00503C91.4928 3.69685 91.4928 2.9282 91.9018 2.72301C94.0563 2.87717 96.773 2.87717 97.695 2.87717C98.5158 2.87717 99.3871 2.82507 100.053 2.72301C101.079 5.3374 107.128 12.1044 108.82 14.0015L113.793 19.5896C117.33 23.5362 119.842 26.4071 122.251 28.8689H122.355C122.559 28.6112 122.559 27.7921 122.559 26.7153V15.7439C122.559 13.3353 122.508 6.67018 121.534 5.13275C121.226 4.67122 120.405 4.36357 118.356 4.10696L117.483 4.00503C117.125 3.69685 117.176 2.87717 117.586 2.72301C119.944 2.82507 121.687 2.87717 123.636 2.87717C125.84 2.87717 127.173 2.82507 128.917 2.72301C129.327 2.9791 129.327 3.69685 129.019 4.00503L128.301 4.10696C126.66 4.36357 125.635 4.77314 125.43 5.18378C124.558 7.02939 124.661 13.3863 124.661 15.7439V27.9961Z" fill="#231F20"/>
<path d="M137.047 35.123C138.073 35.123 139.662 34.3538 140.174 33.84C140.789 33.2249 140.789 32.5077 140.84 31.4303L140.943 28.407C140.943 27.8418 140.737 27.7398 140.43 27.7398C140.122 27.7398 139.25 27.9453 138.328 28.2535C135.304 29.2783 133.817 30.0474 133.817 32.046C133.817 32.9174 134.433 35.123 137.047 35.123ZM140.226 26.0993C140.994 25.8438 141.096 25.3821 141.096 24.6128L141.148 22.2546C141.2 20.3576 140.584 17.7949 137.405 17.7949C135.97 17.7949 134.226 18.5125 134.125 20.1015C134.074 20.9217 134.022 21.5374 133.612 21.8445C132.843 22.4597 131.459 22.8184 130.69 22.8184C130.229 22.8184 129.973 22.5628 129.973 22.1011C129.973 19.4353 135.765 15.7947 139.508 15.7947C143.198 15.7947 144.993 17.9489 144.838 21.7935L144.531 30.7132C144.429 33.0714 144.89 35.1729 146.89 35.1729C147.402 35.1729 147.864 35.0195 148.172 34.8654C148.428 34.7113 148.684 34.5073 148.838 34.5073C149.043 34.5073 149.197 34.8155 149.197 35.1729C149.197 35.4306 147.402 37.4292 144.89 37.4292C143.661 37.4292 142.429 36.9675 141.558 35.8402C141.353 35.5326 141.045 35.123 140.737 35.123C140.379 35.123 139.763 35.5841 138.739 36.1479C137.61 36.7635 136.483 37.4292 135.048 37.4292C133.56 37.4292 132.33 37.0191 131.459 36.2498C130.485 35.3785 129.869 34.0977 129.869 32.6613C129.869 30.6633 130.843 29.4822 134.125 28.3035L140.226 26.0993Z" fill="#231F20"/>
<path d="M157.008 18.6661C156.137 18.6661 156.086 18.8202 156.086 19.897V29.4822C156.086 32.4572 156.445 35.1729 159.827 35.1729C160.342 35.1729 160.803 35.071 161.213 34.9174C161.674 34.7634 162.34 34.1998 162.495 34.1998C162.904 34.1998 163.109 34.7634 163.006 35.071C162.084 36.1478 160.239 37.4292 157.624 37.4292C153.215 37.4292 152.293 34.969 152.293 31.892V20.1531C152.293 18.7691 152.241 18.6661 151.216 18.6661H149.78C149.472 18.4615 149.422 17.8968 149.627 17.5893C151.112 17.1287 152.394 16.462 152.907 16.0009C153.573 15.3852 154.547 14.0012 155.06 12.9754C155.317 12.8734 155.933 12.8734 156.137 13.2319V15.5392C156.137 16.462 156.189 16.5129 157.06 16.5129H162.751C163.366 16.9745 163.262 18.3585 162.803 18.6661H157.008Z" fill="#231F20"/>
<path d="M172.815 7.38771C172.815 9.23278 171.533 10.0541 170.098 10.0541C168.508 10.0541 167.482 8.87411 167.482 7.4903C167.482 5.79872 168.714 4.72189 170.251 4.72189C171.789 4.72189 172.815 5.95181 172.815 7.38771ZM168.56 21.998C168.56 19.9991 168.56 19.743 167.176 18.8202L166.714 18.5125C166.508 18.3075 166.508 17.7433 166.766 17.5893C167.945 17.1796 170.867 15.8467 172.046 15.0775C172.302 15.0775 172.507 15.1805 172.559 15.3852C172.456 17.1796 172.354 19.6404 172.354 21.7425V30.9708C172.354 34.6613 172.456 35.173 174.302 35.4306L175.378 35.5841C175.736 35.8402 175.634 36.7115 175.275 36.8655C173.738 36.7636 172.251 36.7115 170.456 36.7115C168.611 36.7115 167.073 36.7636 165.637 36.8655C165.279 36.7115 165.176 35.8402 165.534 35.5841L166.612 35.4306C168.508 35.173 168.56 34.6613 168.56 30.9708V21.998Z" fill="#231F20"/>
<path d="M187.797 17.3332C184.413 17.3332 181.901 20.5632 181.901 26.2013C181.901 30.8672 184.004 35.8907 188.514 35.8907C193.025 35.8907 194.409 31.1748 194.409 27.2281C194.409 22.8703 192.667 17.3332 187.797 17.3332ZM198.818 26.4068C198.818 32.8153 194.409 37.4292 188.001 37.4292C182.106 37.4292 177.492 33.277 177.492 26.8685C177.492 20.4097 182.362 15.7947 188.412 15.7947C194.152 15.7947 198.818 20.1015 198.818 26.4068Z" fill="#231F20"/>
<path d="M203.609 21.998C203.609 19.9991 203.61 19.743 202.225 18.8202L201.763 18.5125C201.559 18.3075 201.559 17.7433 201.815 17.5893C202.994 17.1796 205.916 15.8467 206.942 15.0775C207.146 15.0775 207.403 15.1805 207.505 15.4361C207.403 16.616 207.403 17.3843 207.403 17.8458C207.403 18.1534 207.608 18.4095 207.966 18.4095C210.119 17.0766 212.53 15.7947 215.144 15.7947C219.4 15.7947 221.141 18.717 221.141 22.1522V30.9708C221.141 34.6613 221.245 35.173 223.09 35.4306L224.217 35.5841C224.576 35.8402 224.475 36.7115 224.116 36.8655C222.577 36.7636 221.09 36.7115 219.296 36.7115C217.45 36.7115 215.913 36.7636 214.528 36.8655C214.17 36.7115 214.067 35.8402 214.427 35.5841L215.401 35.4306C217.297 35.123 217.348 34.6613 217.348 30.9708V23.3315C217.348 20.4097 216.015 18.2564 212.53 18.2564C210.58 18.2564 208.89 19.0757 208.172 20.0499C207.505 20.9217 207.403 21.6395 207.403 23.1259V30.9708C207.403 34.6613 207.505 35.123 209.351 35.4306L210.274 35.5841C210.632 35.8402 210.53 36.7115 210.171 36.8655C208.787 36.7636 207.3 36.7115 205.505 36.7115C203.66 36.7115 202.123 36.7636 200.688 36.8655C200.328 36.7115 200.225 35.8402 200.584 35.5841L201.662 35.4306C203.558 35.173 203.609 34.6613 203.609 30.9708V21.998Z" fill="#231F20"/>
<path d="M233.472 35.123C234.497 35.123 236.086 34.3538 236.599 33.84C237.213 33.2249 237.213 32.5077 237.265 31.4303L237.368 28.407C237.368 27.8418 237.163 27.7398 236.855 27.7398C236.547 27.7398 235.676 27.9453 234.754 28.2535C231.729 29.2783 230.242 30.0474 230.242 32.046C230.242 32.9174 230.858 35.123 233.472 35.123ZM236.65 26.0993C237.42 25.8438 237.521 25.3821 237.521 24.6128L237.573 22.2546C237.624 20.3576 237.009 17.7949 233.83 17.7949C232.395 17.7949 230.651 18.5125 230.55 20.1015C230.498 20.9217 230.447 21.5374 230.037 21.8445C229.268 22.4597 227.884 22.8184 227.115 22.8184C226.653 22.8184 226.397 22.5628 226.397 22.1011C226.397 19.4353 232.19 15.7947 235.933 15.7947C239.624 15.7947 241.418 17.9489 241.264 21.7935L240.956 30.7132C240.855 33.0714 241.316 35.1729 243.314 35.1729C243.827 35.1729 244.29 35.0195 244.596 34.8654C244.853 34.7113 245.109 34.5073 245.263 34.5073C245.467 34.5073 245.622 34.8155 245.622 35.1729C245.622 35.4306 243.827 37.4292 241.316 37.4292C240.085 37.4292 238.855 36.9675 237.983 35.8402C237.778 35.5326 237.47 35.123 237.163 35.123C236.804 35.123 236.189 35.5841 235.164 36.1479C234.036 36.7635 232.907 37.4292 231.472 37.4292C229.985 37.4292 228.755 37.0191 227.884 36.2498C226.91 35.3785 226.294 34.0977 226.294 32.6613C226.294 30.6633 227.268 29.4822 230.55 28.3035L236.65 26.0993Z" fill="#231F20"/>
<path d="M254.564 30.9708C254.564 34.6613 254.666 35.173 256.512 35.4306L257.741 35.5841C258.101 35.8402 257.998 36.7115 257.639 36.8655C255.948 36.7636 254.461 36.7115 252.666 36.7115C250.821 36.7115 249.282 36.7636 247.744 36.8655C247.386 36.7115 247.283 35.8402 247.642 35.5841L248.822 35.4306C250.718 35.173 250.77 34.6613 250.77 30.9708V7.79781C250.77 4.77292 250.718 4.46541 249.181 3.54314L248.668 3.23549C248.412 3.08147 248.412 2.36425 248.668 2.21022C249.95 1.79959 252.359 1.03027 254.204 0.057106C254.41 0.057106 254.614 0.159027 254.718 0.364082C254.666 1.90258 254.564 4.4654 254.564 6.72098V30.9708Z" fill="#231F20"/>
<path d="M280.168 37.533C275.862 37.533 273.145 36.1986 272.171 35.6349C271.555 34.5075 270.889 30.8675 270.787 28.4577C271.042 28.0996 271.811 27.9961 272.016 28.3037C272.787 30.919 274.888 35.9425 280.834 35.9425C285.14 35.9425 287.243 33.1232 287.243 30.0477C287.243 27.7921 286.782 25.2803 283.039 22.8706L278.169 19.6916C275.606 18.0002 272.632 15.0777 272.632 10.8734C272.632 6.004 276.425 2.05643 283.09 2.05643C284.679 2.05643 286.525 2.36448 287.858 2.72302C288.525 2.9282 289.241 3.03067 289.653 3.03067C290.114 4.26058 290.575 7.13185 290.575 9.28497C290.37 9.59262 289.549 9.74665 289.293 9.43913C288.627 6.97783 287.243 3.64529 282.321 3.64529C277.298 3.64529 276.221 6.97783 276.221 9.336C276.221 12.3095 278.681 14.4626 280.578 15.6419L284.679 18.2047C287.909 20.2043 291.088 23.1782 291.088 28.0476C291.088 33.6868 286.832 37.533 280.168 37.533Z" fill="#231F20"/>
<path d="M310.798 16.667C311.207 17.0256 311.567 17.8458 311.567 18.717C311.567 19.6404 311.054 20.6142 310.438 20.6142C310.182 20.6142 309.926 20.5116 309.72 20.2555C308.593 18.8712 306.697 17.5383 304.596 17.5383C301.006 17.5383 297.519 20.3576 297.519 25.7917C297.519 29.7904 300.289 34.5578 305.773 34.5578C308.747 34.5578 310.286 33.2249 311.464 31.4824C311.874 31.3803 312.335 31.7385 312.386 32.2001C310.643 35.9942 306.799 37.4292 303.825 37.4292C301.109 37.4292 298.596 36.558 296.801 34.8155C295.006 33.0714 293.829 30.5591 293.829 27.2281C293.829 21.6905 297.724 15.7947 306.236 15.7947C307.415 15.7947 309.413 16.0519 310.798 16.667Z" fill="#231F20"/>
<path d="M321.789 7.38771C321.789 9.23278 320.507 10.0541 319.071 10.0541C317.483 10.0541 316.458 8.87411 316.458 7.4903C316.458 5.79872 317.688 4.72189 319.225 4.72189C320.763 4.72189 321.789 5.95181 321.789 7.38771ZM317.534 21.998C317.534 19.9991 317.534 19.743 316.15 18.8202L315.688 18.5125C315.483 18.3075 315.483 17.7433 315.74 17.5893C316.919 17.1796 319.841 15.8467 321.019 15.0775C321.276 15.0775 321.481 15.1805 321.533 15.3852C321.429 17.1796 321.326 19.6404 321.326 21.7425V30.9708C321.326 34.6613 321.429 35.173 323.276 35.4306L324.352 35.5841C324.709 35.8402 324.608 36.7115 324.25 36.8655C322.712 36.7636 321.225 36.7115 319.43 36.7115C317.584 36.7115 316.048 36.7636 314.611 36.8655C314.253 36.7115 314.149 35.8402 314.509 35.5841L315.587 35.4306C317.483 35.173 317.534 34.6613 317.534 30.9708V21.998Z" fill="#231F20"/>
<path d="M334.514 22.0501C338.309 22.0501 339.436 21.8445 339.847 21.5374C340 21.4344 340.154 21.2299 340.154 20.5632C340.154 19.1277 339.18 17.3332 336.206 17.3332C333.182 17.3332 330.568 20.1015 330.516 21.7935C330.516 21.8961 330.516 22.0501 330.876 22.0501H334.514ZM331.338 23.5875C330.003 23.5875 329.952 23.6896 329.952 24.9725C329.952 30.1495 332.978 34.5578 338.464 34.5578C340.154 34.5578 341.591 34.0462 343.179 32.046C343.692 31.892 344.05 32.2001 344.102 32.6613C342.41 36.1478 338.719 37.4292 336.053 37.4292C332.721 37.4292 330.107 35.9942 328.62 34.0462C327.081 32.046 326.467 29.6364 326.467 27.3823C326.467 21.0759 330.618 15.7947 336.77 15.7947C341.18 15.7947 344.05 18.8202 344.05 21.8961C344.05 22.6138 343.948 23.0239 343.846 23.2285C343.692 23.536 342.975 23.5875 340.82 23.5875H331.338Z" fill="#231F20"/>
<path d="M348.988 21.998C348.988 19.9991 348.988 19.743 347.604 18.8202L347.141 18.5125C346.936 18.3075 346.936 17.7433 347.193 17.5893C348.373 17.1796 351.294 15.8467 352.319 15.0775C352.524 15.0775 352.78 15.1805 352.883 15.4361C352.78 16.616 352.78 17.3843 352.78 17.8458C352.78 18.1534 352.987 18.4095 353.344 18.4095C355.498 17.0766 357.908 15.7947 360.521 15.7947C364.778 15.7947 366.519 18.717 366.519 22.1522V30.9708C366.519 34.6613 366.622 35.173 368.469 35.4306L369.596 35.5841C369.954 35.8402 369.853 36.7115 369.493 36.8655C367.954 36.7636 366.467 36.7115 364.674 36.7115C362.829 36.7115 361.291 36.7636 359.906 36.8655C359.548 36.7115 359.445 35.8402 359.804 35.5841L360.777 35.4306C362.676 35.123 362.726 34.6613 362.726 30.9708V23.3315C362.726 20.4097 361.392 18.2564 357.908 18.2564C355.959 18.2564 354.267 19.0757 353.55 20.0499C352.883 20.9217 352.78 21.6395 352.78 23.1259V30.9708C352.78 34.6613 352.883 35.123 354.729 35.4306L355.651 35.5841C356.01 35.8402 355.908 36.7115 355.55 36.8655C354.166 36.7636 352.679 36.7115 350.884 36.7115C349.039 36.7115 347.501 36.7636 346.065 36.8655C345.706 36.7115 345.604 35.8402 345.962 35.5841L347.04 35.4306C348.936 35.173 348.988 34.6613 348.988 30.9708V21.998Z" fill="#231F20"/>
<path d="M387.668 16.667C388.077 17.0256 388.436 17.8458 388.436 18.717C388.436 19.6404 387.924 20.6142 387.308 20.6142C387.053 20.6142 386.796 20.5116 386.59 20.2555C385.462 18.8712 383.566 17.5383 381.463 17.5383C377.875 17.5383 374.39 20.3576 374.39 25.7917C374.39 29.7904 377.157 34.5578 382.642 34.5578C385.616 34.5578 387.154 33.2249 388.333 31.4824C388.743 31.3803 389.204 31.7385 389.256 32.2001C387.514 35.9942 383.668 37.4292 380.695 37.4292C377.979 37.4292 375.465 36.558 373.672 34.8155C371.877 33.0714 370.698 30.5591 370.698 27.2281C370.698 21.6905 374.594 15.7947 383.105 15.7947C384.283 15.7947 386.283 16.0519 387.668 16.667Z" fill="#231F20"/>
<path d="M399.221 22.0501C403.016 22.0501 404.143 21.8445 404.554 21.5374C404.707 21.4344 404.861 21.2299 404.861 20.5632C404.861 19.1277 403.887 17.3332 400.915 17.3332C397.889 17.3332 395.275 20.1015 395.224 21.7935C395.224 21.8961 395.224 22.0501 395.583 22.0501H399.221ZM396.045 23.5875C394.71 23.5875 394.661 23.6896 394.661 24.9725C394.661 30.1495 397.685 34.5578 403.171 34.5578C404.861 34.5578 406.298 34.0462 407.886 32.046C408.399 31.892 408.757 32.2001 408.809 32.6613C407.117 36.1478 403.426 37.4292 400.76 37.4292C397.428 37.4292 394.814 35.9942 393.327 34.0462C391.789 32.046 391.174 29.6364 391.174 27.3823C391.174 21.0759 395.325 15.7947 401.478 15.7947C405.887 15.7947 408.757 18.8202 408.757 21.8961C408.757 22.6138 408.655 23.0239 408.553 23.2285C408.399 23.536 407.682 23.5875 405.528 23.5875H396.045Z" fill="#231F20"/>
<path d="M430.216 17.3332C430.216 18.717 430.37 18.717 431.908 18.717H435.393C437.496 18.717 439.136 18.6151 439.752 18.4095C440.315 18.2045 440.726 17.9489 441.033 16.616L441.494 14.5648C441.752 14.2573 442.623 14.2573 442.827 14.5648C442.827 15.7947 442.623 17.8458 442.623 19.743C442.623 21.5885 442.827 23.536 442.827 24.7149C442.623 25.0225 441.853 25.0225 441.494 24.7149L440.981 22.7163C440.726 21.7935 440.315 21.0759 439.341 20.7682C438.624 20.5632 437.341 20.5116 435.393 20.5116H431.908C430.37 20.5116 430.216 20.5632 430.216 21.8961V29.0222C430.216 34.4038 430.318 35.173 433.343 35.4306L435.086 35.5841C435.393 35.7887 435.291 36.7115 434.983 36.8655C431.959 36.7636 430.216 36.7115 428.165 36.7115C425.91 36.7115 424.167 36.7636 421.758 36.8655C421.45 36.7115 421.348 35.8907 421.654 35.5841L422.937 35.4306C425.91 35.071 426.012 34.4038 426.012 29.0222V10.5668C426.012 5.18356 425.91 4.46541 422.937 4.10674L422.115 4.00481C421.807 3.79922 421.911 2.87695 422.219 2.72279C424.372 2.82485 426.116 2.87695 428.165 2.87695H437.599C440.88 2.87695 443.853 2.87695 444.519 2.72279C444.519 5.08056 444.571 7.54134 444.672 9.48994C444.519 9.79745 443.802 9.95094 443.442 9.64342C443.032 7.33668 442.416 5.43911 439.853 4.77292C438.726 4.46541 437.034 4.46541 434.882 4.46541H431.755C430.216 4.46541 430.216 4.56787 430.216 6.51647V17.3332Z" fill="#231F20"/>
<path d="M456.592 17.3332C453.209 17.3332 450.698 20.5632 450.698 26.2013C450.698 30.8672 452.8 35.8907 457.31 35.8907C461.822 35.8907 463.206 31.1748 463.206 27.2281C463.206 22.8703 461.462 17.3332 456.592 17.3332ZM467.615 26.4068C467.615 32.8153 463.206 37.4292 456.799 37.4292C450.902 37.4292 446.288 33.277 446.288 26.8685C446.288 20.4097 451.159 15.7947 457.208 15.7947C462.949 15.7947 467.615 20.1015 467.615 26.4068Z" fill="#231F20"/>
<path d="M475.532 29.1763C475.532 32.7133 476.405 35.0711 480.301 35.0711C481.685 35.0711 483.325 34.5074 484.454 33.5326C485.12 32.9175 485.479 32.1497 485.479 30.5592V22.1523C485.479 18.8202 485.12 18.7171 483.581 18.1025L482.916 17.8459C482.556 17.6408 482.556 16.9232 482.967 16.7182C485.017 16.6671 487.836 16.3085 488.964 15.7948C489.222 15.8468 489.375 15.9488 489.426 16.1544C489.323 17.1288 489.271 18.7171 489.271 20.6143V29.2268C489.271 33.2771 489.426 34.8156 490.862 34.8156C491.475 34.8156 492.143 34.7114 492.861 34.5579C493.169 34.8156 493.219 35.8403 492.81 36.0443C490.81 36.456 487.836 36.9676 486.094 37.9424C485.837 37.9424 485.581 37.7884 485.479 37.5828V35.4812C485.479 35.0196 485.325 34.7635 485.017 34.7635C483.48 35.7382 480.967 37.4293 477.942 37.4293C473.431 37.4293 471.74 35.173 471.74 31.0208V22.4598C471.74 19.2298 471.74 18.7692 470.201 18.1025L469.586 17.8459C469.278 17.5894 469.33 16.8722 469.689 16.7182C472.048 16.6671 474.046 16.2055 475.175 15.7948C475.483 15.8468 475.636 15.9488 475.687 16.1544C475.584 17.0257 475.532 18.1025 475.532 20.6143V29.1763Z" fill="#231F20"/>
<path d="M497.653 21.998C497.653 19.9991 497.653 19.743 496.27 18.8202L495.808 18.5125C495.603 18.3075 495.603 17.7433 495.858 17.5893C497.038 17.1796 499.961 15.8467 500.985 15.0775C501.191 15.0775 501.446 15.1805 501.549 15.4361C501.446 16.616 501.446 17.3843 501.446 17.8458C501.446 18.1534 501.652 18.4095 502.01 18.4095C504.164 17.0766 506.575 15.7947 509.188 15.7947C513.442 15.7947 515.186 18.717 515.186 22.1522V30.9708C515.186 34.6613 515.288 35.173 517.135 35.4306L518.262 35.5841C518.621 35.8402 518.518 36.7115 518.16 36.8655C516.621 36.7636 515.134 36.7115 513.341 36.7115C511.494 36.7115 509.958 36.7636 508.572 36.8655C508.214 36.7115 508.111 35.8402 508.471 35.5841L509.443 35.4306C511.342 35.123 511.393 34.6613 511.393 30.9708V23.3315C511.393 20.4097 510.059 18.2564 506.575 18.2564C504.625 18.2564 502.933 19.0757 502.216 20.0499C501.549 20.9217 501.446 21.6395 501.446 23.1259V30.9708C501.446 34.6613 501.549 35.123 503.396 35.4306L504.318 35.5841C504.676 35.8402 504.575 36.7115 504.215 36.8655C502.832 36.7636 501.345 36.7115 499.55 36.7115C497.705 36.7115 496.166 36.7636 494.731 36.8655C494.371 36.7115 494.27 35.8402 494.629 35.5841L495.705 35.4306C497.603 35.173 497.653 34.6613 497.653 30.9708V21.998Z" fill="#231F20"/>
<path d="M535.462 21.5375C535.462 20.5117 535.256 20.05 534.896 19.5375C534.129 18.4616 532.591 17.3843 530.591 17.3843C525.926 17.3843 523.516 21.4345 523.516 25.8953C523.516 30.5592 526.13 34.9691 531.156 34.9691C532.539 34.9691 534.283 34.3539 535.103 33.5326C535.41 33.225 535.462 32.4573 535.462 31.6365V21.5375ZM539.254 29.2268C539.254 33.2771 539.306 35.173 540.741 35.173C541.306 35.173 542.177 34.9175 542.945 34.6614C543.305 34.7635 543.357 36.0443 542.896 36.302C540.741 36.6095 537.563 37.3788 536.127 37.9424C535.819 37.9424 535.564 37.7884 535.564 37.5328V36.66C535.564 35.8908 535.563 35.2767 535.462 35.0711H535.256C533 36.6095 531.257 37.4293 528.796 37.4293C523.107 37.4293 519.312 32.9689 519.312 27.5864C519.312 20.4098 524.747 15.7948 531.72 15.7948C533.461 15.7948 534.591 16.052 535.154 16.2565C535.41 16.2565 535.462 15.9488 535.462 15.5393V7.7979C535.462 4.773 535.41 4.46549 533.871 3.54322L533.36 3.23557C533.103 3.08155 533.103 2.36433 533.36 2.2103C534.64 1.79967 537.05 1.03036 538.897 0.0571899C539.101 0.0571899 539.306 0.159111 539.409 0.364162C539.358 1.90266 539.254 4.46548 539.254 6.72106V29.2268Z" fill="#231F20"/>
<path d="M552.61 35.123C553.636 35.123 555.224 34.3538 555.737 33.84C556.352 33.2249 556.352 32.5077 556.403 31.4303L556.507 28.407C556.507 27.8418 556.3 27.7398 555.993 27.7398C555.686 27.7398 554.815 27.9453 553.892 28.2535C550.868 29.2783 549.38 30.0474 549.38 32.046C549.38 32.9174 549.994 35.123 552.61 35.123ZM555.789 26.0993C556.556 25.8438 556.66 25.3821 556.66 24.6128L556.711 22.2546C556.763 20.3576 556.147 17.7949 552.968 17.7949C551.533 17.7949 549.79 18.5125 549.688 20.1015C549.637 20.9217 549.585 21.5374 549.175 21.8445C548.406 22.4597 547.022 22.8184 546.253 22.8184C545.792 22.8184 545.535 22.5628 545.535 22.1011C545.535 19.4353 551.328 15.7947 555.071 15.7947C558.763 15.7947 560.557 17.9489 560.403 21.7935L560.095 30.7132C559.991 33.0714 560.453 35.1729 562.453 35.1729C562.965 35.1729 563.426 35.0195 563.734 34.8654C563.992 34.7113 564.248 34.5073 564.401 34.5073C564.605 34.5073 564.76 34.8155 564.76 35.1729C564.76 35.4306 562.965 37.4292 560.453 37.4292C559.222 37.4292 557.994 36.9675 557.123 35.8402C556.916 35.5326 556.608 35.123 556.3 35.123C555.942 35.123 555.328 35.5841 554.303 36.1479C553.173 36.7635 552.046 37.4292 550.61 37.4292C549.124 37.4292 547.893 37.0191 547.022 36.2498C546.048 35.3785 545.434 34.0977 545.434 32.6613C545.434 30.6633 546.406 29.4822 549.688 28.3035L555.789 26.0993Z" fill="#231F20"/>
<path d="M572.571 18.6661C571.7 18.6661 571.648 18.8202 571.648 19.897V29.4822C571.648 32.4572 572.008 35.1729 575.39 35.1729C575.905 35.1729 576.366 35.071 576.775 34.9174C577.237 34.7634 577.902 34.1998 578.057 34.1998C578.468 34.1998 578.672 34.7634 578.569 35.071C577.646 36.1478 575.801 37.4292 573.187 37.4292C568.779 37.4292 567.856 34.969 567.856 31.892V20.1531C567.856 18.7691 567.804 18.6661 566.778 18.6661H565.344C565.037 18.4615 564.985 17.8968 565.19 17.5893C566.677 17.1287 567.957 16.462 568.471 16.0009C569.136 15.3852 570.112 14.0012 570.623 12.9754C570.879 12.8734 571.495 12.8734 571.7 13.2319V15.5392C571.7 16.462 571.752 16.5129 572.623 16.5129H578.314C578.928 16.9745 578.825 18.3585 578.364 18.6661H572.571Z" fill="#231F20"/>
<path d="M588.379 7.38771C588.379 9.23278 587.095 10.0541 585.661 10.0541C584.072 10.0541 583.046 8.87411 583.046 7.4903C583.046 5.79872 584.276 4.72189 585.815 4.72189C587.353 4.72189 588.379 5.95181 588.379 7.38771ZM584.122 21.998C584.122 19.9991 584.122 19.743 582.739 18.8202L582.278 18.5125C582.072 18.3075 582.072 17.7433 582.328 17.5893C583.507 17.1796 586.429 15.8467 587.608 15.0775C587.864 15.0775 588.071 15.1805 588.12 15.3852C588.019 17.1796 587.916 19.6404 587.916 21.7425V30.9708C587.916 34.6613 588.019 35.173 589.864 35.4306L590.942 35.5841C591.299 35.8402 591.198 36.7115 590.838 36.8655C589.301 36.7636 587.815 36.7115 586.02 36.7115C584.174 36.7115 582.636 36.7636 581.201 36.8655C580.841 36.7115 580.739 35.8402 581.098 35.5841L582.174 35.4306C584.072 35.173 584.122 34.6613 584.122 30.9708V21.998Z" fill="#231F20"/>
<path d="M603.356 17.3332C599.973 17.3332 597.46 20.5632 597.46 26.2013C597.46 30.8672 599.561 35.8907 604.073 35.8907C608.585 35.8907 609.97 31.1748 609.97 27.2281C609.97 22.8703 608.226 17.3332 603.356 17.3332ZM614.377 26.4068C614.377 32.8153 609.97 37.4292 603.561 37.4292C597.665 37.4292 593.051 33.277 593.051 26.8685C593.051 20.4097 597.921 15.7947 603.971 15.7947C609.713 15.7947 614.377 20.1015 614.377 26.4068Z" fill="#231F20"/>
<path d="M619.168 21.998C619.168 19.9991 619.168 19.743 617.785 18.8202L617.323 18.5125C617.118 18.3075 617.118 17.7433 617.374 17.5893C618.553 17.1796 621.476 15.8467 622.501 15.0775C622.706 15.0775 622.962 15.1805 623.064 15.4361C622.962 16.616 622.962 17.3843 622.962 17.8458C622.962 18.1534 623.167 18.4095 623.525 18.4095C625.68 17.0766 628.09 15.7947 630.703 15.7947C634.957 15.7947 636.701 18.717 636.701 22.1522V30.9708C636.701 34.6613 636.804 35.173 638.649 35.4306L639.776 35.5841C640.136 35.8402 640.033 36.7115 639.675 36.8655C638.136 36.7636 636.649 36.7115 634.856 36.7115C633.009 36.7115 631.473 36.7636 630.087 36.8655C629.729 36.7115 629.626 35.8402 629.986 35.5841L630.958 35.4306C632.857 35.123 632.906 34.6613 632.906 30.9708V23.3315C632.906 20.4097 631.574 18.2564 628.09 18.2564C626.141 18.2564 624.448 19.0757 623.732 20.0499C623.064 20.9217 622.962 21.6395 622.962 23.1259V30.9708C622.962 34.6613 623.064 35.123 624.911 35.4306L625.833 35.5841C626.191 35.8402 626.089 36.7115 625.73 36.8655C624.347 36.7636 622.86 36.7115 621.066 36.7115C619.219 36.7115 617.681 36.7636 616.246 36.8655C615.887 36.7115 615.785 35.8402 616.144 35.5841L617.219 35.4306C619.118 35.173 619.168 34.6613 619.168 30.9708V21.998Z" fill="#231F20"/>
</svg>
