<svg width="98" height="64" viewBox="0 0 98 64" fill="none" xmlns="http://www.w3.org/2000/svg">
<path d="M95.8974 4.09878V13.3696C95.8974 14.7808 95.9366 14.9768 96.6422 15.0748L97.1126 15.1336C97.2498 15.2316 97.2106 15.5648 97.0734 15.6236C96.4266 15.5844 95.8582 15.5648 95.1722 15.5648C94.4666 15.5648 93.8786 15.5844 93.2906 15.6236C93.1534 15.5648 93.1142 15.2316 93.2514 15.1336L93.7022 15.0748C94.4274 14.9768 94.447 14.7808 94.447 13.3696V4.51038C94.447 3.35398 94.4274 3.23638 93.8394 2.88358L93.6434 2.76598C93.5454 2.70718 93.5454 2.43278 93.6434 2.37398C94.1334 2.21718 95.0546 1.92318 95.7602 1.55078C95.8386 1.55078 95.917 1.58998 95.9562 1.66838C95.9366 2.25638 95.8974 3.23638 95.8974 4.09878Z" fill="white"/>
<path d="M86.6844 12.3504L89.0168 11.5076C89.3108 11.4096 89.35 11.2332 89.35 10.9392L89.3696 10.0376C89.3892 9.31238 89.154 8.33238 87.9388 8.33238C87.39 8.33238 86.7236 8.60678 86.6844 9.21438C86.6648 9.52798 86.6452 9.76318 86.4884 9.88078C86.1944 10.116 85.6652 10.2532 85.3712 10.2532C85.1948 10.2532 85.0968 10.1552 85.0968 9.97878C85.0968 8.95958 87.3116 7.56798 88.7424 7.56798C90.1536 7.56798 90.8396 8.39118 90.7808 9.86118L90.6632 13.2716C90.624 14.1732 90.8004 14.9768 91.5648 14.9768C91.7608 14.9768 91.9372 14.918 92.0548 14.8592C92.1528 14.8004 92.2508 14.722 92.3096 14.722C92.388 14.722 92.4468 14.8396 92.4468 14.9768C92.4468 15.0748 91.7608 15.8392 90.8004 15.8392C90.33 15.8392 89.8596 15.6628 89.5264 15.2316C89.448 15.114 89.3304 14.9572 89.2128 14.9572C89.0756 14.9572 88.8404 15.1336 88.4484 15.3492C88.0172 15.5844 87.586 15.8392 87.0372 15.8392C86.4688 15.8392 85.9984 15.6824 85.6652 15.3884C85.2928 15.0552 85.0576 14.5652 85.0576 14.0164C85.0576 13.252 85.43 12.8012 86.6844 12.3504ZM86.5668 13.7812C86.5668 14.1144 86.802 14.9572 87.8016 14.9572C88.1936 14.9572 88.8012 14.6632 88.9972 14.4672C89.2324 14.232 89.2324 13.9576 89.252 13.546L89.2912 12.3896C89.2912 12.174 89.2128 12.1348 89.0952 12.1348C88.9776 12.1348 88.6444 12.2132 88.2916 12.3308C87.1352 12.7228 86.5668 13.0168 86.5668 13.7812Z" fill="white"/>
<path d="M76.6959 13.3696V9.93958C76.6959 9.17518 76.6959 9.07718 76.1667 8.72438L75.9903 8.60678C75.9119 8.52838 75.9119 8.31278 76.0099 8.25398C76.4607 8.09718 77.5779 7.58758 77.9699 7.29358C78.0483 7.29358 78.1463 7.33278 78.1855 7.43078C78.1463 7.88158 78.1463 8.17558 78.1463 8.35198C78.1463 8.46958 78.2247 8.56758 78.3619 8.56758C79.1851 8.05798 80.1063 7.56798 81.1059 7.56798C82.7327 7.56798 83.3991 8.68518 83.3991 9.99838V13.3696C83.3991 14.7808 83.4383 14.9768 84.1439 15.0748L84.5751 15.1336C84.7123 15.2316 84.6731 15.5648 84.5359 15.6236C83.9479 15.5844 83.3795 15.5648 82.6935 15.5648C81.9879 15.5648 81.3999 15.5844 80.8707 15.6236C80.7335 15.5648 80.6943 15.2316 80.8315 15.1336L81.2039 15.0748C81.9291 14.9572 81.9487 14.7808 81.9487 13.3696V10.4492C81.9487 9.33198 81.4391 8.50878 80.1063 8.50878C79.3615 8.50878 78.7147 8.82238 78.4403 9.19478C78.1855 9.52798 78.1463 9.80238 78.1463 10.3708V13.3696C78.1463 14.7808 78.1855 14.9572 78.8911 15.0748L79.2439 15.1336C79.3811 15.2316 79.3419 15.5648 79.2047 15.6236C78.6755 15.5844 78.1071 15.5648 77.4211 15.5648C76.7155 15.5648 76.1275 15.5844 75.5787 15.6236C75.4415 15.5648 75.4023 15.2316 75.5395 15.1336L75.9511 15.0748C76.6763 14.9768 76.6959 14.7808 76.6959 13.3696Z" fill="white"/>
<path d="M70.8916 7.56798C73.0868 7.56798 74.8704 9.21438 74.8704 11.6252C74.8704 14.0752 73.1848 15.8392 70.7348 15.8392C68.4808 15.8392 66.7168 14.2516 66.7168 11.8016C66.7168 9.33198 68.5788 7.56798 70.8916 7.56798ZM73.1848 11.9388C73.1848 10.2728 72.5184 8.15598 70.6564 8.15598C69.3628 8.15598 68.4024 9.39078 68.4024 11.5468C68.4024 13.3304 69.206 15.2512 70.9308 15.2512C72.6556 15.2512 73.1848 13.448 73.1848 11.9388Z" fill="white"/>
<path d="M63.5723 13.3696V9.93958C63.5723 9.17518 63.5723 9.07718 63.0431 8.72438L62.8667 8.60678C62.7883 8.52838 62.7883 8.31278 62.8863 8.25398C63.3371 8.09718 64.4543 7.58758 64.9051 7.29358C65.0031 7.29358 65.0815 7.33278 65.1011 7.41118C65.0619 8.09718 65.0227 9.03798 65.0227 9.84158V13.3696C65.0227 14.7808 65.0619 14.9768 65.7675 15.0748L66.1791 15.1336C66.3163 15.2316 66.2771 15.5648 66.1399 15.6236C65.5519 15.5844 64.9835 15.5648 64.2975 15.5648C63.5919 15.5648 63.0039 15.5844 62.4551 15.6236C62.3179 15.5648 62.2787 15.2316 62.4159 15.1336L62.8275 15.0748C63.5527 14.9768 63.5723 14.7808 63.5723 13.3696ZM64.2191 3.33438C64.8071 3.33438 65.1991 3.80478 65.1991 4.35358C65.1991 5.05918 64.7091 5.37278 64.1603 5.37278C63.5527 5.37278 63.1607 4.92198 63.1607 4.39278C63.1607 3.74598 63.6311 3.33438 64.2191 3.33438Z" fill="white"/>
<path d="M61.2966 8.66558H59.0818C58.7486 8.66558 58.729 8.72438 58.729 9.13598V12.8012C58.729 13.938 58.8662 14.9768 60.1598 14.9768C60.3558 14.9768 60.5322 14.9376 60.689 14.8788C60.8654 14.82 61.1202 14.6044 61.179 14.6044C61.3358 14.6044 61.4142 14.82 61.375 14.9376C61.0222 15.3492 60.3166 15.8392 59.317 15.8392C57.6314 15.8392 57.2786 14.8984 57.2786 13.7224V9.23398C57.2786 8.70478 57.259 8.66558 56.867 8.66558H56.3182C56.2006 8.58718 56.181 8.37158 56.2594 8.25398C56.8278 8.07758 57.3178 7.82278 57.5138 7.64638C57.7686 7.41118 58.141 6.88198 58.337 6.48998C58.435 6.45078 58.6702 6.45078 58.7486 6.58798V7.46998C58.7486 7.82278 58.7682 7.84238 59.1014 7.84238H61.277C61.5122 8.01878 61.473 8.54798 61.2966 8.66558Z" fill="white"/>
<path d="M50.5423 12.3504L52.8747 11.5076C53.1687 11.4096 53.2079 11.2332 53.2079 10.9392L53.2275 10.0376C53.2471 9.31238 53.0119 8.33238 51.7967 8.33238C51.2479 8.33238 50.5815 8.60678 50.5423 9.21438C50.5227 9.52798 50.5031 9.76318 50.3463 9.88078C50.0523 10.116 49.5231 10.2532 49.2291 10.2532C49.0527 10.2532 48.9547 10.1552 48.9547 9.97878C48.9547 8.95958 51.1695 7.56798 52.6003 7.56798C54.0115 7.56798 54.6975 8.39118 54.6387 9.86118L54.5211 13.2716C54.4819 14.1732 54.6583 14.9768 55.4227 14.9768C55.6187 14.9768 55.7951 14.918 55.9127 14.8592C56.0107 14.8004 56.1087 14.722 56.1675 14.722C56.2459 14.722 56.3047 14.8396 56.3047 14.9768C56.3047 15.0748 55.6187 15.8392 54.6583 15.8392C54.1879 15.8392 53.7175 15.6628 53.3843 15.2316C53.3059 15.114 53.1883 14.9572 53.0707 14.9572C52.9335 14.9572 52.6983 15.1336 52.3063 15.3492C51.8751 15.5844 51.4439 15.8392 50.8951 15.8392C50.3267 15.8392 49.8563 15.6824 49.5231 15.3884C49.1507 15.0552 48.9155 14.5652 48.9155 14.0164C48.9155 13.252 49.2879 12.8012 50.5423 12.3504ZM50.4247 13.7812C50.4247 14.1144 50.6599 14.9572 51.6595 14.9572C52.0515 14.9572 52.6591 14.6632 52.8551 14.4672C53.0903 14.232 53.0903 13.9576 53.1099 13.546L53.1491 12.3896C53.1491 12.174 53.0707 12.1348 52.9531 12.1348C52.8355 12.1348 52.5023 12.2132 52.1495 12.3308C50.9931 12.7228 50.4247 13.0168 50.4247 13.7812Z" fill="white"/>
<path d="M46.9008 7.54838V12.2328C46.9008 12.8208 46.9008 15.1532 46.9596 15.6628C46.9204 15.7804 46.8028 15.8784 46.5872 15.8784C46.352 15.5452 45.7836 14.8592 44.0784 12.9188L39.5312 7.74438C39.002 7.13678 37.6692 5.52958 37.2576 5.09838H37.2184C37.14 5.33358 37.1204 5.78438 37.1204 6.37238V10.6452C37.1204 11.5664 37.14 14.1144 37.4732 14.7024C37.5908 14.918 37.9828 15.0356 38.4728 15.0748L39.0804 15.1336C39.198 15.2904 39.1784 15.5256 39.0412 15.6236C38.1592 15.5844 37.4732 15.5648 36.748 15.5648C35.9248 15.5648 35.3956 15.5844 34.7096 15.6236C34.5724 15.5256 34.5528 15.2512 34.6704 15.1336L35.1996 15.0748C35.6504 15.016 35.964 14.8984 36.062 14.6828C36.3364 13.9772 36.3168 11.586 36.3168 10.6452V4.98078C36.3168 4.43198 36.2972 4.02038 35.8856 3.56958C35.6112 3.29518 35.1408 3.15798 34.6704 3.09918L34.3372 3.05998C34.2196 2.94238 34.2196 2.64838 34.3764 2.56998C35.1996 2.62878 36.2384 2.62878 36.5912 2.62878C36.9048 2.62878 37.238 2.60918 37.4928 2.56998C37.8848 3.56958 40.1976 6.15678 40.8444 6.88198L42.7456 9.01838C44.098 10.5276 45.0584 11.6252 45.9796 12.566H46.0188C46.0972 12.468 46.0972 12.1544 46.0972 11.7428V7.54838C46.0972 6.62718 46.0776 4.07918 45.7052 3.49118C45.5876 3.31478 45.274 3.19718 44.49 3.09918L44.1568 3.05998C44.0196 2.94238 44.0392 2.62878 44.196 2.56998C45.0976 2.60918 45.764 2.62878 46.5088 2.62878C47.3516 2.62878 47.8612 2.60918 48.5276 2.56998C48.6844 2.66798 48.6844 2.94238 48.5668 3.05998L48.2924 3.09918C47.6652 3.19718 47.2732 3.35398 47.1948 3.51078C46.8616 4.21638 46.9008 6.64678 46.9008 7.54838Z" fill="white"/>
<path d="M28.3037 15.8392C27.7353 15.8392 27.2061 15.4276 27.2061 14.7612C27.2061 14.0948 27.6765 13.6048 28.3037 13.6048C28.9701 13.6048 29.4013 14.134 29.4013 14.7612C29.4013 15.3884 28.9701 15.8392 28.3037 15.8392Z" fill="white"/>
<path d="M25.6356 12.2524C25.6356 14.4084 24.0088 15.8784 21.4608 15.8784C19.8144 15.8784 18.7756 15.3688 18.4032 15.1532C18.168 14.722 17.9132 13.3304 17.874 12.4092C17.972 12.272 18.266 12.2328 18.3444 12.3504C18.6384 13.35 19.442 15.2708 21.7156 15.2708C23.362 15.2708 24.1656 14.1928 24.1656 13.0168C24.1656 12.1544 23.9892 11.194 22.5584 10.2728L20.6964 9.05758C19.7164 8.41078 18.5796 7.29358 18.5796 5.68638C18.5796 3.82438 20.03 2.31518 22.578 2.31518C23.1856 2.31518 23.8912 2.43278 24.4008 2.56998C24.6556 2.64838 24.93 2.68758 25.0868 2.68758C25.2632 3.15798 25.4396 4.25558 25.4396 5.07878C25.3612 5.19638 25.0476 5.25518 24.9496 5.13758C24.6948 4.19678 24.1656 2.92278 22.284 2.92278C20.3632 2.92278 19.9516 4.19678 19.9516 5.09838C19.9516 6.23518 20.8924 7.05838 21.6176 7.50918L23.1856 8.48918C24.4204 9.25358 25.6356 10.3904 25.6356 12.2524Z" fill="white"/>
<path d="M14.7392 15.8392C14.1708 15.8392 13.6416 15.4276 13.6416 14.7612C13.6416 14.0948 14.112 13.6048 14.7392 13.6048C15.4056 13.6048 15.8368 14.134 15.8368 14.7612C15.8368 15.3884 15.4056 15.8392 14.7392 15.8392Z" fill="white"/>
<path d="M11.5238 9.80238V7.54838C11.5238 6.33318 11.4846 4.07918 11.1514 3.49118C11.0142 3.25598 10.6614 3.11878 10.1714 3.07958L9.68137 3.04038C9.56377 2.90318 9.60297 2.64838 9.72057 2.56998C10.4654 2.60918 11.1906 2.62878 11.955 2.62878C12.7782 2.62878 13.3074 2.60918 14.013 2.56998C14.1698 2.66798 14.1502 2.92278 14.0522 3.04038L13.5818 3.07958C13.0918 3.11878 12.7194 3.29518 12.6018 3.54998C12.3274 4.19678 12.3274 6.45078 12.3274 7.54838V9.76318C12.3274 11.4684 12.053 13.2716 10.9554 14.4476C10.1126 15.3688 8.66217 15.8784 7.21177 15.8784C5.85937 15.8784 4.50697 15.6236 3.54657 14.8004C2.50777 13.938 2.01777 12.5072 2.01777 10.1748V5.54918C2.01777 3.51078 1.97857 3.17758 0.841768 3.07958L0.351768 3.04038C0.234168 2.96198 0.273368 2.62878 0.390968 2.56998C1.37097 2.60918 2.03737 2.62878 2.82137 2.62878C3.62497 2.62878 4.27177 2.60918 5.23217 2.56998C5.34977 2.62878 5.38897 2.96198 5.27137 3.04038L4.80097 3.07958C3.66417 3.17758 3.62497 3.51078 3.62497 5.54918V9.78278C3.62497 12.9384 4.60497 15.016 7.60377 15.016C10.4458 15.016 11.5238 12.7816 11.5238 9.80238Z" fill="white"/>
<path d="M51.155 33.6472H47.529C47.0194 33.6472 46.9998 33.6864 46.9998 34.1764C46.9998 36.156 48.1562 37.8416 50.2534 37.8416C50.9002 37.8416 51.449 37.6456 52.0566 36.8812C52.2526 36.8224 52.3898 36.94 52.4094 37.1164C51.7626 38.4492 50.3514 38.9392 49.3322 38.9392C48.0582 38.9392 47.0586 38.3904 46.4902 37.6456C45.9022 36.8812 45.667 35.96 45.667 35.0976C45.667 32.6868 47.2546 30.668 49.6066 30.668C51.2922 30.668 52.3898 31.8244 52.3898 33.0004C52.3898 33.2748 52.3506 33.4316 52.3114 33.51C52.2526 33.6276 51.9782 33.6472 51.155 33.6472ZM47.3526 33.0592H48.7442C50.1946 33.0592 50.6258 32.9808 50.7826 32.8632C50.8414 32.824 50.9002 32.7456 50.9002 32.4908C50.9002 31.942 50.5278 31.256 49.391 31.256C48.2346 31.256 47.235 32.3144 47.2154 32.9612C47.2154 33.0004 47.2154 33.0592 47.3526 33.0592Z" fill="white"/>
<path d="M42.6543 30.668C43.1051 30.668 43.8695 30.766 44.3987 31.0012C44.5555 31.1384 44.6927 31.452 44.6927 31.7852C44.6927 32.138 44.4967 32.5104 44.2615 32.5104C44.1635 32.5104 44.0655 32.4712 43.9871 32.3732C43.5559 31.844 42.8307 31.3344 42.0271 31.3344C40.6551 31.3344 39.3223 32.4124 39.3223 34.49C39.3223 36.0188 40.3807 37.8416 42.4779 37.8416C43.6147 37.8416 44.2027 37.332 44.6535 36.6656C44.8103 36.6264 44.9867 36.7636 45.0063 36.94C44.3399 38.3904 42.8699 38.9392 41.7331 38.9392C40.6943 38.9392 39.7339 38.606 39.0479 37.9396C38.3619 37.2732 37.9111 36.3128 37.9111 35.0388C37.9111 32.922 39.4007 30.668 42.6543 30.668Z" fill="white"/>
<path d="M29.6661 36.4696V33.0396C29.6661 32.2752 29.6661 32.1772 29.1369 31.8244L28.9605 31.7068C28.8821 31.6284 28.8821 31.4128 28.9801 31.354C29.4309 31.1972 30.5481 30.6876 30.9401 30.3936C31.0185 30.3936 31.1165 30.4328 31.1557 30.5308C31.1165 30.9816 31.1165 31.2756 31.1165 31.452C31.1165 31.5696 31.1949 31.6676 31.3321 31.6676C32.1553 31.158 33.0765 30.668 34.0761 30.668C35.7029 30.668 36.3693 31.7852 36.3693 33.0984V36.4696C36.3693 37.8808 36.4085 38.0768 37.1141 38.1748L37.5453 38.2336C37.6825 38.3316 37.6433 38.6648 37.5061 38.7236C36.9181 38.6844 36.3497 38.6648 35.6637 38.6648C34.9581 38.6648 34.3701 38.6844 33.8409 38.7236C33.7037 38.6648 33.6645 38.3316 33.8017 38.2336L34.1741 38.1748C34.8993 38.0572 34.9189 37.8808 34.9189 36.4696V33.5492C34.9189 32.432 34.4093 31.6088 33.0765 31.6088C32.3317 31.6088 31.6849 31.9224 31.4105 32.2948C31.1557 32.628 31.1165 32.9024 31.1165 33.4708V36.4696C31.1165 37.8808 31.1557 38.0572 31.8613 38.1748L32.2141 38.2336C32.3513 38.3316 32.3121 38.6648 32.1749 38.7236C31.6457 38.6844 31.0773 38.6648 30.3913 38.6648C29.6857 38.6648 29.0977 38.6844 28.5489 38.7236C28.4117 38.6648 28.3725 38.3316 28.5097 38.2336L28.9213 38.1748C29.6465 38.0768 29.6661 37.8808 29.6661 36.4696Z" fill="white"/>
<path d="M26.7824 33.6472H23.1564C22.6468 33.6472 22.6272 33.6864 22.6272 34.1764C22.6272 36.156 23.7836 37.8416 25.8808 37.8416C26.5276 37.8416 27.0764 37.6456 27.684 36.8812C27.88 36.8224 28.0172 36.94 28.0368 37.1164C27.39 38.4492 25.9788 38.9392 24.9596 38.9392C23.6856 38.9392 22.686 38.3904 22.1176 37.6456C21.5296 36.8812 21.2944 35.96 21.2944 35.0976C21.2944 32.6868 22.882 30.668 25.234 30.668C26.9196 30.668 28.0172 31.8244 28.0172 33.0004C28.0172 33.2748 27.978 33.4316 27.9388 33.51C27.88 33.6276 27.6056 33.6472 26.7824 33.6472ZM22.98 33.0592H24.3716C25.822 33.0592 26.2532 32.9808 26.41 32.8632C26.4688 32.824 26.5276 32.7456 26.5276 32.4908C26.5276 31.942 26.1552 31.256 25.0184 31.256C23.862 31.256 22.8624 32.3144 22.8428 32.9612C22.8428 33.0004 22.8428 33.0592 22.98 33.0592Z" fill="white"/>
<path d="M18.0357 36.4696V33.0396C18.0357 32.2752 18.0357 32.1772 17.5065 31.8244L17.3301 31.7068C17.2517 31.6284 17.2517 31.4128 17.3497 31.354C17.8005 31.1972 18.9177 30.6876 19.3685 30.3936C19.4665 30.3936 19.5449 30.4328 19.5645 30.5112C19.5253 31.1972 19.4861 32.138 19.4861 32.9416V36.4696C19.4861 37.8808 19.5253 38.0768 20.2309 38.1748L20.6425 38.2336C20.7797 38.3316 20.7405 38.6648 20.6033 38.7236C20.0153 38.6844 19.4469 38.6648 18.7609 38.6648C18.0553 38.6648 17.4673 38.6844 16.9185 38.7236C16.7813 38.6648 16.7421 38.3316 16.8793 38.2336L17.2909 38.1748C18.0161 38.0768 18.0357 37.8808 18.0357 36.4696ZM18.6825 26.4344C19.2705 26.4344 19.6625 26.9048 19.6625 27.4536C19.6625 28.1592 19.1725 28.4728 18.6237 28.4728C18.0161 28.4728 17.6241 28.022 17.6241 27.4928C17.6241 26.846 18.0945 26.4344 18.6825 26.4344Z" fill="white"/>
<path d="M13.7412 30.668C14.192 30.668 14.9564 30.766 15.4856 31.0012C15.6424 31.1384 15.7796 31.452 15.7796 31.7852C15.7796 32.138 15.5836 32.5104 15.3484 32.5104C15.2504 32.5104 15.1524 32.4712 15.074 32.3732C14.6428 31.844 13.9176 31.3344 13.114 31.3344C11.742 31.3344 10.4092 32.4124 10.4092 34.49C10.4092 36.0188 11.4676 37.8416 13.5648 37.8416C14.7016 37.8416 15.2896 37.332 15.7404 36.6656C15.8972 36.6264 16.0736 36.7636 16.0932 36.94C15.4268 38.3904 13.9568 38.9392 12.82 38.9392C11.7812 38.9392 10.8208 38.606 10.1348 37.9396C9.44885 37.2732 8.99805 36.3128 8.99805 35.0388C8.99805 32.922 10.4876 30.668 13.7412 30.668Z" fill="white"/>
<path d="M8.05896 35.3524C8.05896 37.5084 6.43216 38.9784 3.88416 38.9784C2.23776 38.9784 1.19896 38.4688 0.826563 38.2532C0.591363 37.822 0.336563 36.4304 0.297363 35.5092C0.395363 35.372 0.689363 35.3328 0.767763 35.4504C1.06176 36.45 1.86536 38.3708 4.13896 38.3708C5.78536 38.3708 6.58896 37.2928 6.58896 36.1168C6.58896 35.2544 6.41256 34.294 4.98176 33.3728L3.11976 32.1576C2.13976 31.5108 1.00296 30.3936 1.00296 28.7864C1.00296 26.9244 2.45336 25.4152 5.00136 25.4152C5.60896 25.4152 6.31456 25.5328 6.82416 25.67C7.07896 25.7484 7.35336 25.7876 7.51016 25.7876C7.68656 26.258 7.86296 27.3556 7.86296 28.1788C7.78456 28.2964 7.47096 28.3552 7.37296 28.2376C7.11816 27.2968 6.58896 26.0228 4.70736 26.0228C2.78656 26.0228 2.37496 27.2968 2.37496 28.1984C2.37496 29.3352 3.31576 30.1584 4.04096 30.6092L5.60896 31.5892C6.84376 32.3536 8.05896 33.4904 8.05896 35.3524Z" fill="white"/>
<path d="M74.3756 59.7836V56.3536C74.3756 55.5892 74.3756 55.4912 73.8464 55.1384L73.67 55.0208C73.5916 54.9424 73.5916 54.7268 73.6896 54.668C74.1404 54.5112 75.2576 54.0016 75.6496 53.7076C75.728 53.7076 75.826 53.7468 75.8652 53.8448C75.826 54.2956 75.826 54.5896 75.826 54.766C75.826 54.8836 75.9044 54.9816 76.0416 54.9816C76.8648 54.472 77.786 53.982 78.7856 53.982C80.4124 53.982 81.0788 55.0992 81.0788 56.4124V59.7836C81.0788 61.1948 81.118 61.3908 81.8236 61.4888L82.2548 61.5476C82.392 61.6456 82.3528 61.9788 82.2156 62.0376C81.6276 61.9984 81.0592 61.9788 80.3732 61.9788C79.6676 61.9788 79.0796 61.9984 78.5504 62.0376C78.4132 61.9788 78.374 61.6456 78.5112 61.5476L78.8836 61.4888C79.6088 61.3712 79.6284 61.1948 79.6284 59.7836V56.8632C79.6284 55.746 79.1188 54.9228 77.786 54.9228C77.0412 54.9228 76.3944 55.2364 76.12 55.6088C75.8652 55.942 75.826 56.2164 75.826 56.7848V59.7836C75.826 61.1948 75.8652 61.3712 76.5708 61.4888L76.9236 61.5476C77.0608 61.6456 77.0216 61.9788 76.8844 62.0376C76.3552 61.9984 75.7868 61.9788 75.1008 61.9788C74.3952 61.9788 73.8072 61.9984 73.2584 62.0376C73.1212 61.9788 73.082 61.6456 73.2192 61.5476L73.6308 61.4888C74.356 61.3908 74.3756 61.1948 74.3756 59.7836Z" fill="white"/>
<path d="M68.6367 53.982C70.8319 53.982 72.6155 55.6284 72.6155 58.0392C72.6155 60.4892 70.9299 62.2532 68.4799 62.2532C66.2259 62.2532 64.4619 60.6656 64.4619 58.2156C64.4619 55.746 66.3239 53.982 68.6367 53.982ZM70.9299 58.3528C70.9299 56.6868 70.2635 54.57 68.4015 54.57C67.1079 54.57 66.1475 55.8048 66.1475 57.9608C66.1475 59.7444 66.9511 61.6652 68.6759 61.6652C70.4007 61.6652 70.9299 59.862 70.9299 58.3528Z" fill="white"/>
<path d="M61.1876 59.7836V56.3536C61.1876 55.5892 61.1876 55.4912 60.6584 55.1384L60.482 55.0208C60.4036 54.9424 60.4036 54.7268 60.5016 54.668C60.9524 54.5112 62.0696 54.0016 62.5204 53.7076C62.6184 53.7076 62.6968 53.7468 62.7164 53.8252C62.6772 54.5112 62.638 55.452 62.638 56.2556V59.7836C62.638 61.1948 62.6772 61.3908 63.3828 61.4888L63.7944 61.5476C63.9316 61.6456 63.8924 61.9788 63.7552 62.0376C63.1672 61.9984 62.5988 61.9788 61.9128 61.9788C61.2072 61.9788 60.6192 61.9984 60.0704 62.0376C59.9332 61.9788 59.894 61.6456 60.0312 61.5476L60.4428 61.4888C61.168 61.3908 61.1876 61.1948 61.1876 59.7836ZM61.8344 49.7484C62.4224 49.7484 62.8144 50.2188 62.8144 50.7676C62.8144 51.4732 62.3244 51.7868 61.7756 51.7868C61.168 51.7868 60.776 51.336 60.776 50.8068C60.776 50.16 61.2464 49.7484 61.8344 49.7484Z" fill="white"/>
<path d="M59.0086 55.0796H56.7938C56.4606 55.0796 56.441 55.1384 56.441 55.55V59.2152C56.441 60.352 56.5782 61.3908 57.8718 61.3908C58.0678 61.3908 58.2442 61.3516 58.401 61.2928C58.5774 61.234 58.8322 61.0184 58.891 61.0184C59.0478 61.0184 59.1262 61.234 59.087 61.3516C58.7342 61.7632 58.0286 62.2532 57.029 62.2532C55.3434 62.2532 54.9906 61.3124 54.9906 60.1364V55.648C54.9906 55.1188 54.971 55.0796 54.579 55.0796H54.0302C53.9126 55.0012 53.893 54.7856 53.9714 54.668C54.5398 54.4916 55.0298 54.2368 55.2258 54.0604C55.4806 53.8252 55.853 53.296 56.049 52.904C56.147 52.8648 56.3822 52.8648 56.4606 53.002V53.884C56.4606 54.2368 56.4802 54.2564 56.8134 54.2564H58.989C59.2242 54.4328 59.185 54.962 59.0086 55.0796Z" fill="white"/>
<path d="M48.3514 58.7644L50.6838 57.9216C50.9778 57.8236 51.017 57.6472 51.017 57.3532L51.0366 56.4516C51.0562 55.7264 50.821 54.7464 49.6058 54.7464C49.057 54.7464 48.3906 55.0208 48.3514 55.6284C48.3318 55.942 48.3122 56.1772 48.1554 56.2948C47.8614 56.53 47.3322 56.6672 47.0382 56.6672C46.8618 56.6672 46.7638 56.5692 46.7638 56.3928C46.7638 55.3736 48.9786 53.982 50.4094 53.982C51.8206 53.982 52.5066 54.8052 52.4478 56.2752L52.3302 59.6856C52.291 60.5872 52.4674 61.3908 53.2318 61.3908C53.4278 61.3908 53.6042 61.332 53.7218 61.2732C53.8198 61.2144 53.9178 61.136 53.9766 61.136C54.055 61.136 54.1138 61.2536 54.1138 61.3908C54.1138 61.4888 53.4278 62.2532 52.4674 62.2532C51.997 62.2532 51.5266 62.0768 51.1934 61.6456C51.115 61.528 50.9974 61.3712 50.8798 61.3712C50.7426 61.3712 50.5074 61.5476 50.1154 61.7632C49.6842 61.9984 49.253 62.2532 48.7042 62.2532C48.1358 62.2532 47.6654 62.0964 47.3322 61.8024C46.9598 61.4692 46.7246 60.9792 46.7246 60.4304C46.7246 59.666 47.097 59.2152 48.3514 58.7644ZM48.2338 60.1952C48.2338 60.5284 48.469 61.3712 49.4686 61.3712C49.8606 61.3712 50.4682 61.0772 50.6642 60.8812C50.8994 60.646 50.8994 60.3716 50.919 59.96L50.9582 58.8036C50.9582 58.588 50.8798 58.5488 50.7622 58.5488C50.6446 58.5488 50.3114 58.6272 49.9586 58.7448C48.8022 59.1368 48.2338 59.4308 48.2338 60.1952Z" fill="white"/>
<path d="M44.4955 50.5128V59.1172C44.4955 60.6656 44.5151 61.3908 45.0639 61.3908C45.2795 61.3908 45.6127 61.2928 45.9067 61.1948C46.0439 61.234 46.0635 61.724 45.8871 61.822C45.0639 61.9396 43.8487 62.2336 43.2999 62.4492C43.1823 62.4492 43.0843 62.3904 43.0843 62.2924V61.9592C43.0843 61.6652 43.0843 61.43 43.0451 61.3516H42.9667C42.1043 61.9396 41.4379 62.2532 40.4971 62.2532C38.3215 62.2532 36.8711 60.548 36.8711 58.49C36.8711 55.746 38.9487 53.982 41.6143 53.982C42.2807 53.982 42.7119 54.08 42.9275 54.1584C43.0255 54.1584 43.0451 54.0408 43.0451 53.884V50.9244C43.0451 49.768 43.0255 49.6504 42.4375 49.2976L42.2415 49.18C42.1435 49.1212 42.1435 48.8468 42.2415 48.788C42.7315 48.6312 43.6527 48.3372 44.3583 47.9648C44.4367 47.9648 44.5151 48.004 44.5543 48.0824C44.5347 48.6704 44.4955 49.6504 44.4955 50.5128ZM43.0451 60.0384V56.1772C43.0451 55.7852 42.9667 55.6088 42.8295 55.4128C42.5355 55.0012 41.9475 54.5896 41.1831 54.5896C39.3995 54.5896 38.4783 56.138 38.4783 57.8432C38.4783 59.6268 39.4779 61.3124 41.3987 61.3124C41.9279 61.3124 42.5943 61.0772 42.9079 60.7636C43.0255 60.646 43.0451 60.352 43.0451 60.0384Z" fill="white"/>
<path d="M28.7237 59.7836V56.3536C28.7237 55.5892 28.7237 55.4912 28.1945 55.1384L28.0181 55.0208C27.9397 54.9424 27.9397 54.7268 28.0377 54.668C28.4885 54.5112 29.6057 54.0016 29.9977 53.7076C30.0761 53.7076 30.1741 53.7468 30.2133 53.8448C30.1741 54.2956 30.1741 54.5896 30.1741 54.766C30.1741 54.8836 30.2525 54.9816 30.3897 54.9816C31.2129 54.472 32.1341 53.982 33.1337 53.982C34.7605 53.982 35.4269 55.0992 35.4269 56.4124V59.7836C35.4269 61.1948 35.4661 61.3908 36.1717 61.4888L36.6029 61.5476C36.7401 61.6456 36.7009 61.9788 36.5637 62.0376C35.9757 61.9984 35.4073 61.9788 34.7213 61.9788C34.0157 61.9788 33.4277 61.9984 32.8985 62.0376C32.7613 61.9788 32.7221 61.6456 32.8593 61.5476L33.2317 61.4888C33.9569 61.3712 33.9765 61.1948 33.9765 59.7836V56.8632C33.9765 55.746 33.4669 54.9228 32.1341 54.9228C31.3893 54.9228 30.7425 55.2364 30.4681 55.6088C30.2133 55.942 30.1741 56.2164 30.1741 56.7848V59.7836C30.1741 61.1948 30.2133 61.3712 30.9189 61.4888L31.2717 61.5476C31.4089 61.6456 31.3697 61.9788 31.2325 62.0376C30.7033 61.9984 30.1349 61.9788 29.4489 61.9788C28.7433 61.9788 28.1553 61.9984 27.6065 62.0376C27.4693 61.9788 27.4301 61.6456 27.5673 61.5476L27.9789 61.4888C28.7041 61.3908 28.7237 61.1948 28.7237 59.7836Z" fill="white"/>
<path d="M20.321 55.8244V59.0976C20.321 60.45 20.6542 61.3516 22.1438 61.3516C22.673 61.3516 23.3002 61.136 23.7314 60.7636C23.9862 60.5284 24.1234 60.2344 24.1234 59.6268V56.4124C24.1234 55.1384 23.9862 55.0992 23.3982 54.864L23.1434 54.766C23.0062 54.6876 23.0062 54.4132 23.163 54.3348C23.947 54.3152 25.025 54.178 25.4562 53.982C25.5542 54.0016 25.613 54.0408 25.6326 54.1192C25.5934 54.4916 25.5738 55.0992 25.5738 55.8244V59.1172C25.5738 60.6656 25.6326 61.2536 26.1814 61.2536C26.4166 61.2536 26.6714 61.2144 26.9458 61.1556C27.0634 61.2536 27.083 61.6456 26.9262 61.724C26.1618 61.8808 25.025 62.0768 24.3586 62.4492C24.2606 62.4492 24.1626 62.3904 24.1234 62.312V61.5084C24.1234 61.332 24.0646 61.234 23.947 61.234C23.359 61.6064 22.3986 62.2532 21.2422 62.2532C19.5174 62.2532 18.8706 61.3908 18.8706 59.8032V56.53C18.8706 55.2952 18.8706 55.1188 18.2826 54.864L18.0474 54.766C17.9298 54.668 17.9494 54.3936 18.0866 54.3348C18.9882 54.3152 19.7526 54.1388 20.1838 53.982C20.3014 54.0016 20.3602 54.0408 20.3798 54.1192C20.3406 54.4524 20.321 54.864 20.321 55.8244Z" fill="white"/>
<path d="M13.6523 53.982C15.8475 53.982 17.6311 55.6284 17.6311 58.0392C17.6311 60.4892 15.9455 62.2532 13.4955 62.2532C11.2415 62.2532 9.47754 60.6656 9.47754 58.2156C9.47754 55.746 11.3395 53.982 13.6523 53.982ZM15.9455 58.3528C15.9455 56.6868 15.2791 54.57 13.4171 54.57C12.1235 54.57 11.1631 55.8048 11.1631 57.9608C11.1631 59.7444 11.9667 61.6652 13.6915 61.6652C15.4163 61.6652 15.9455 59.862 15.9455 58.3528Z" fill="white"/>
<path d="M3.34421 50.4344V54.57C3.34421 55.0992 3.40301 55.0992 3.99101 55.0992H5.32381C6.12741 55.0992 6.75461 55.06 6.98981 54.9816C7.20541 54.9032 7.36221 54.8052 7.47981 54.2956L7.65621 53.5116C7.75421 53.394 8.08741 53.394 8.16581 53.5116C8.16581 53.982 8.08741 54.766 8.08741 55.4912C8.08741 56.1968 8.16581 56.9416 8.16581 57.3924C8.08741 57.51 7.79341 57.51 7.65621 57.3924L7.46021 56.628C7.36221 56.2752 7.20541 56.0008 6.83301 55.8832C6.55861 55.8048 6.06861 55.7852 5.32381 55.7852H3.99101C3.40301 55.7852 3.34421 55.8048 3.34421 56.3144V59.0388C3.34421 61.0968 3.38341 61.3908 4.53981 61.4888L5.20621 61.5476C5.32381 61.626 5.28461 61.9788 5.16701 62.0376C4.01061 61.9984 3.34421 61.9788 2.56021 61.9788C1.69781 61.9788 1.03141 61.9984 0.110206 62.0376C-0.00739358 61.9788 -0.0465936 61.6652 0.0710064 61.5476L0.561007 61.4888C1.69781 61.3516 1.73701 61.0968 1.73701 59.0388V51.9828C1.73701 49.9248 1.69781 49.6504 0.561007 49.5132L0.247406 49.474C0.129807 49.3956 0.169006 49.0428 0.286606 48.984C1.10981 49.0232 1.77621 49.0428 2.56021 49.0428H6.16661C7.42101 49.0428 8.55781 49.0428 8.81261 48.984C8.81261 49.8856 8.83221 50.8264 8.87141 51.5712C8.81261 51.6888 8.53821 51.7476 8.40101 51.63C8.24421 50.748 8.00901 50.0228 7.02901 49.768C6.59781 49.6504 5.95101 49.6504 5.12781 49.6504H3.93221C3.34421 49.6504 3.34421 49.6896 3.34421 50.4344Z" fill="white"/>
</svg>
